<svg width="600" height="456" viewBox="0 0 600 456" fill="none" xmlns="http://www.w3.org/2000/svg">
<g clip-path="url(#clip0_5_2)">
<mask id="mask0_5_2" style="mask-type:luminance" maskUnits="userSpaceOnUse" x="0" y="0" width="600" height="456">
<path d="M600 0H0V456H600V0Z" fill="white"/>
</mask>
<g mask="url(#mask0_5_2)">
<path d="M533.227 237.309C533.304 293.735 508.667 347.99 464.495 388.668C461.832 391.136 459.097 393.545 456.29 395.893C452.014 399.495 447.594 402.956 443.03 406.278C400.339 437.413 347.043 454.91 291.742 455.944C289.899 455.982 288.05 456 286.193 456C242.089 456 186.616 435.146 136.275 406.278C132.11 403.889 127.982 401.446 123.891 398.946C121.979 397.789 120.076 396.616 118.183 395.426C98.7665 383.29 80.3369 369.962 63.0296 355.54C51.6978 346.126 41.0716 336.067 31.2186 325.429C-7.46219 283.191 -15.9938 245.133 39.1522 237.309C45.6813 236.387 52.018 235.4 58.1623 234.349C67.0625 232.835 75.5802 231.2 83.7154 229.443C94.6737 227.086 104.969 224.53 114.602 221.773C117.842 220.851 121.008 219.908 124.1 218.948C169.81 204.736 200.404 186.203 221.229 166.093C224.761 162.689 228.018 159.244 230.999 155.758C235.559 150.453 239.701 144.875 243.396 139.065C248.496 130.994 252.78 122.539 256.197 113.798L256.385 113.318C272.954 71.0068 267.913 31.7609 286.193 18.6256C364.333 -37.5289 461.616 42.4403 507.278 136.745C509.579 141.497 511.744 146.278 513.772 151.086C514.683 153.235 515.561 155.388 516.407 157.543C518.632 163.164 520.651 168.798 522.464 174.446C523.159 176.601 523.822 178.753 524.452 180.903C525.127 183.223 525.773 185.537 526.371 187.853C530.814 204.798 533.227 221.509 533.227 237.309Z" fill="#F2F2F2"/>
<path d="M291.742 455.944C289.899 455.982 288.05 456 286.193 456C242.089 456 186.616 435.146 136.275 406.278C132.11 403.889 127.982 401.446 123.891 398.946L127.479 379.619L236.095 366.853L290.608 403.754L291.742 455.944Z" fill="#6D6D6D"/>
<path d="M296.971 110.825H281.493C281.013 110.825 280.554 110.994 280.215 111.294C279.876 111.594 279.685 112.001 279.685 112.425V126.133C279.685 126.343 279.732 126.55 279.823 126.744C279.914 126.938 280.048 127.115 280.215 127.263C280.383 127.41 280.583 127.527 280.802 127.607C281.021 127.687 281.256 127.728 281.493 127.728H296.971C297.449 127.728 297.908 127.56 298.247 127.262C298.586 126.962 298.777 126.557 298.779 126.133V112.425C298.777 112.001 298.586 111.595 298.247 111.295C297.909 110.995 297.45 110.826 296.971 110.825Z" fill="#6D6D6D"/>
<path d="M296.971 134.185H281.493C281.013 134.185 280.554 134.354 280.215 134.653C279.876 134.953 279.685 135.36 279.685 135.785V149.493C279.685 149.702 279.732 149.91 279.823 150.104C279.914 150.298 280.048 150.473 280.215 150.621C280.383 150.77 280.583 150.887 280.802 150.967C281.021 151.047 281.256 151.088 281.493 151.086H296.971C297.449 151.086 297.908 150.919 298.247 150.62C298.586 150.322 298.777 149.916 298.779 149.493V135.785C298.777 135.361 298.586 134.954 298.247 134.654C297.909 134.355 297.45 134.186 296.971 134.185Z" fill="#E6E6E6"/>
<path d="M296.971 157.543H281.493C281.013 157.543 280.554 157.712 280.215 158.013C279.876 158.313 279.685 158.72 279.685 159.144V172.846C279.685 173.055 279.731 173.264 279.822 173.459C279.912 173.653 280.046 173.829 280.213 173.978C280.381 174.127 280.581 174.244 280.8 174.325C281.02 174.405 281.255 174.446 281.493 174.446H296.971C297.45 174.446 297.91 174.278 298.249 173.977C298.588 173.677 298.778 173.27 298.779 172.846V159.144C298.777 158.72 298.586 158.314 298.247 158.014C297.909 157.714 297.45 157.545 296.971 157.543Z" fill="#E6E6E6"/>
<path d="M298.751 182.22C298.674 181.852 298.454 181.519 298.129 181.278C297.804 181.038 297.394 180.904 296.971 180.903H281.493C281.013 180.903 280.554 181.072 280.215 181.372C279.876 181.672 279.685 182.079 279.685 182.504V196.205C279.685 196.415 279.731 196.624 279.822 196.818C279.912 197.013 280.045 197.189 280.213 197.337C280.381 197.487 280.581 197.604 280.8 197.684C281.02 197.765 281.255 197.806 281.493 197.805H296.971C297.45 197.805 297.91 197.636 298.249 197.336C298.588 197.036 298.778 196.63 298.779 196.205V182.504C298.78 182.408 298.771 182.313 298.751 182.22Z" fill="#E6E6E6"/>
<path d="M297.673 204.385C297.45 204.304 297.212 204.262 296.971 204.262H281.493C281.255 204.262 281.02 204.303 280.8 204.383C280.581 204.464 280.381 204.581 280.213 204.73C280.045 204.878 279.912 205.055 279.822 205.249C279.731 205.444 279.685 205.653 279.685 205.862V219.564C279.684 219.775 279.73 219.983 279.82 220.177C279.911 220.372 280.044 220.549 280.212 220.698C280.38 220.846 280.58 220.964 280.8 221.045C281.02 221.125 281.255 221.166 281.493 221.164H296.971C297.45 221.164 297.91 220.996 298.249 220.696C298.588 220.395 298.778 219.988 298.779 219.564V205.862C298.778 205.548 298.672 205.24 298.476 204.976C298.279 204.714 298 204.509 297.673 204.385Z" fill="#E6E6E6"/>
<path d="M329.484 110.825H314.006C313.527 110.825 313.067 110.994 312.728 111.294C312.389 111.594 312.199 112.001 312.198 112.425V126.133C312.199 126.343 312.246 126.55 312.337 126.744C312.428 126.938 312.561 127.115 312.729 127.263C312.897 127.41 313.096 127.527 313.315 127.607C313.534 127.687 313.769 127.728 314.006 127.728H329.484C329.962 127.728 330.421 127.56 330.76 127.262C331.099 126.962 331.29 126.557 331.292 126.133V112.425C331.29 112.001 331.099 111.595 330.761 111.295C330.422 110.995 329.963 110.826 329.484 110.825Z" fill="#E6E6E6"/>
<path d="M329.484 134.185H314.006C313.527 134.185 313.067 134.354 312.728 134.653C312.389 134.953 312.198 135.36 312.198 135.785V149.493C312.199 149.702 312.246 149.91 312.337 150.104C312.428 150.298 312.561 150.473 312.729 150.621C312.897 150.77 313.096 150.887 313.315 150.967C313.534 151.047 313.769 151.088 314.006 151.086H329.484C329.962 151.086 330.421 150.919 330.76 150.62C331.099 150.322 331.29 149.916 331.292 149.493V135.785C331.29 135.361 331.099 134.954 330.761 134.654C330.422 134.355 329.963 134.186 329.484 134.185Z" fill="#6D6D6D"/>
<path d="M329.484 157.543H314.006C313.527 157.543 313.067 157.712 312.728 158.013C312.389 158.313 312.199 158.72 312.198 159.144V172.846C312.198 173.055 312.244 173.264 312.335 173.459C312.426 173.653 312.559 173.829 312.727 173.978C312.895 174.127 313.094 174.244 313.314 174.325C313.533 174.405 313.769 174.446 314.006 174.446H329.484C329.963 174.446 330.423 174.278 330.762 173.977C331.101 173.677 331.292 173.27 331.292 172.846V159.144C331.29 158.72 331.099 158.314 330.761 158.014C330.422 157.714 329.963 157.545 329.484 157.543Z" fill="#E6E6E6"/>
<path d="M329.484 180.903H314.006C313.627 180.903 313.258 181.009 312.951 181.206C312.644 181.403 312.414 181.68 312.296 181.999C312.231 182.161 312.198 182.332 312.198 182.504V196.205C312.198 196.415 312.244 196.624 312.335 196.818C312.426 197.013 312.559 197.189 312.727 197.337C312.895 197.486 313.094 197.604 313.314 197.684C313.533 197.765 313.769 197.806 314.006 197.805H329.484C329.963 197.805 330.423 197.636 330.762 197.336C331.101 197.036 331.292 196.63 331.292 196.205V182.504C331.29 182.08 331.099 181.673 330.761 181.373C330.422 181.073 329.963 180.904 329.484 180.903Z" fill="#E6E6E6"/>
<path d="M329.484 204.262H314.006C313.769 204.262 313.533 204.303 313.314 204.383C313.094 204.464 312.895 204.581 312.727 204.73C312.559 204.878 312.426 205.055 312.335 205.249C312.244 205.444 312.198 205.653 312.198 205.862V219.564C312.198 219.774 312.244 219.982 312.335 220.177C312.426 220.371 312.559 220.548 312.727 220.697C312.895 220.845 313.094 220.963 313.314 221.044C313.533 221.123 313.769 221.164 314.006 221.164H329.484C329.963 221.164 330.423 220.996 330.762 220.696C331.101 220.395 331.292 219.988 331.292 219.564V205.862C331.292 205.438 331.101 205.031 330.762 204.731C330.423 204.43 329.963 204.262 329.484 204.262Z" fill="#E6E6E6"/>
<path d="M361.997 110.825H346.519C346.04 110.825 345.58 110.994 345.241 111.294C344.902 111.594 344.712 112.001 344.712 112.425V126.133C344.712 126.343 344.759 126.55 344.85 126.744C344.941 126.938 345.074 127.115 345.242 127.263C345.41 127.41 345.609 127.527 345.828 127.607C346.047 127.687 346.282 127.728 346.519 127.728H361.997C362.475 127.728 362.934 127.56 363.273 127.262C363.612 126.962 363.803 126.557 363.805 126.133V112.425C363.804 112.001 363.613 111.595 363.274 111.295C362.935 110.995 362.476 110.826 361.997 110.825Z" fill="#E6E6E6"/>
<path d="M361.997 134.185H346.519C346.04 134.185 345.58 134.354 345.241 134.653C344.902 134.953 344.712 135.36 344.712 135.785V149.493C344.712 149.702 344.759 149.91 344.85 150.104C344.941 150.298 345.074 150.473 345.242 150.621C345.41 150.77 345.609 150.887 345.828 150.967C346.047 151.047 346.282 151.088 346.519 151.086H361.997C362.475 151.086 362.934 150.919 363.273 150.62C363.612 150.322 363.803 149.916 363.805 149.493V135.785C363.804 135.361 363.613 134.954 363.274 134.654C362.935 134.355 362.476 134.186 361.997 134.185Z" fill="#6D6D6D"/>
<path d="M361.997 157.543H346.519C346.04 157.543 345.58 157.712 345.241 158.013C344.902 158.313 344.712 158.72 344.712 159.144V172.846C344.711 173.055 344.758 173.264 344.848 173.459C344.939 173.653 345.072 173.829 345.24 173.978C345.408 174.127 345.607 174.244 345.827 174.325C346.046 174.405 346.282 174.446 346.519 174.446H361.997C362.477 174.446 362.936 174.278 363.275 173.977C363.614 173.677 363.805 173.27 363.805 172.846V159.144C363.804 158.72 363.613 158.314 363.274 158.014C362.935 157.714 362.476 157.545 361.997 157.543Z" fill="#E6E6E6"/>
<path d="M361.997 180.903H346.519C346.04 180.903 345.58 181.072 345.241 181.372C344.902 181.672 344.712 182.079 344.712 182.504V196.205C344.711 196.415 344.757 196.624 344.848 196.818C344.939 197.013 345.072 197.189 345.24 197.337C345.408 197.487 345.607 197.604 345.827 197.684C346.046 197.765 346.282 197.806 346.519 197.805H361.997C362.477 197.805 362.936 197.636 363.275 197.336C363.614 197.036 363.805 196.63 363.805 196.205V182.504C363.804 182.08 363.613 181.673 363.274 181.373C362.935 181.073 362.476 180.904 361.997 180.903Z" fill="#6D6D6D"/>
<path d="M361.997 204.262H346.519C346.282 204.262 346.046 204.303 345.827 204.383C345.607 204.464 345.408 204.581 345.24 204.73C345.072 204.878 344.939 205.055 344.848 205.249C344.758 205.444 344.711 205.653 344.712 205.862V219.564C344.711 219.774 344.757 219.982 344.848 220.177C344.939 220.371 345.072 220.548 345.24 220.697C345.408 220.845 345.607 220.963 345.827 221.044C346.046 221.123 346.282 221.164 346.519 221.164H361.997C362.477 221.164 362.936 220.996 363.275 220.696C363.614 220.395 363.805 219.988 363.805 219.564V205.862C363.805 205.438 363.614 205.031 363.275 204.731C362.936 204.43 362.477 204.262 361.997 204.262Z" fill="white"/>
<path d="M394.51 110.825H379.033C378.553 110.825 378.093 110.994 377.754 111.294C377.416 111.594 377.225 112.001 377.225 112.425V126.133C377.225 126.343 377.272 126.55 377.363 126.744C377.454 126.938 377.587 127.115 377.755 127.263C377.923 127.41 378.122 127.527 378.342 127.607C378.561 127.687 378.796 127.728 379.033 127.728H394.51C394.989 127.728 395.448 127.56 395.787 127.262C396.125 126.962 396.317 126.557 396.318 126.133V112.425C396.317 112.001 396.126 111.595 395.787 111.295C395.448 110.995 394.989 110.826 394.51 110.825Z" fill="#E6E6E6"/>
<path d="M394.51 134.185H379.033C378.553 134.185 378.093 134.354 377.754 134.653C377.415 134.953 377.225 135.36 377.225 135.785V149.493C377.225 149.702 377.272 149.91 377.363 150.104C377.454 150.298 377.587 150.473 377.755 150.621C377.923 150.77 378.122 150.887 378.342 150.967C378.561 151.047 378.796 151.088 379.033 151.086H394.51C394.989 151.086 395.448 150.919 395.787 150.62C396.125 150.322 396.317 149.916 396.318 149.493V135.785C396.317 135.361 396.126 134.954 395.787 134.654C395.449 134.355 394.989 134.186 394.51 134.185Z" fill="white"/>
<path d="M394.51 157.543H379.033C378.553 157.543 378.093 157.712 377.754 158.013C377.415 158.313 377.225 158.72 377.225 159.144V172.846C377.224 173.055 377.271 173.264 377.361 173.459C377.452 173.653 377.585 173.829 377.753 173.978C377.921 174.127 378.121 174.244 378.34 174.325C378.56 174.405 378.795 174.446 379.033 174.446H394.51C394.99 174.446 395.45 174.278 395.789 173.977C396.128 173.677 396.318 173.27 396.318 172.846V159.144C396.317 158.72 396.126 158.314 395.787 158.014C395.449 157.714 394.989 157.545 394.51 157.543Z" fill="white"/>
<path d="M394.51 180.903H379.033C378.553 180.903 378.093 181.072 377.754 181.372C377.415 181.672 377.225 182.079 377.225 182.504V196.205C377.224 196.415 377.271 196.624 377.361 196.818C377.452 197.013 377.585 197.189 377.753 197.337C377.921 197.487 378.121 197.604 378.34 197.684C378.56 197.765 378.795 197.806 379.033 197.805H394.51C394.99 197.805 395.45 197.636 395.789 197.336C396.128 197.036 396.318 196.63 396.318 196.205V182.504C396.317 182.08 396.126 181.673 395.787 181.373C395.449 181.073 394.989 180.904 394.51 180.903Z" fill="#6D6D6D"/>
<path d="M394.51 204.262H379.033C378.795 204.262 378.56 204.303 378.34 204.383C378.121 204.464 377.921 204.581 377.753 204.73C377.585 204.878 377.452 205.055 377.361 205.249C377.271 205.444 377.224 205.653 377.225 205.862V219.564C377.224 219.774 377.271 219.982 377.361 220.177C377.452 220.371 377.585 220.548 377.753 220.697C377.921 220.845 378.121 220.963 378.34 221.044C378.56 221.123 378.795 221.164 379.033 221.164H394.51C394.99 221.164 395.45 220.996 395.789 220.696C396.128 220.395 396.318 219.988 396.318 219.564V205.862C396.318 205.438 396.128 205.031 395.789 204.731C395.45 204.43 394.99 204.262 394.51 204.262Z" fill="#E6E6E6"/>
<path d="M427.024 110.825H411.539C411.061 110.827 410.602 110.996 410.265 111.296C409.927 111.596 409.738 112.002 409.738 112.425V126.133C409.738 126.556 409.928 126.962 410.266 127.26C410.603 127.559 411.061 127.728 411.539 127.728H427.024C427.502 127.728 427.961 127.56 428.3 127.262C428.639 126.962 428.83 126.557 428.832 126.133V112.425C428.83 112.001 428.639 111.595 428.3 111.295C427.962 110.995 427.503 110.826 427.024 110.825Z" fill="#6D6D6D"/>
<path d="M427.024 134.185H411.539C411.06 134.186 410.602 134.355 410.265 134.656C409.927 134.955 409.738 135.361 409.738 135.785V149.493C409.738 149.916 409.928 150.32 410.266 150.62C410.603 150.919 411.061 151.086 411.539 151.086H427.024C427.502 151.086 427.961 150.919 428.3 150.62C428.639 150.322 428.83 149.916 428.832 149.493V135.785C428.83 135.361 428.639 134.954 428.3 134.654C427.962 134.355 427.503 134.186 427.024 134.185Z" fill="white"/>
<path d="M427.024 157.543H411.539C411.061 157.545 410.602 157.714 410.265 158.014C409.927 158.314 409.738 158.721 409.738 159.144V172.846C409.737 173.055 409.783 173.263 409.874 173.458C409.964 173.652 410.096 173.827 410.264 173.977C410.431 174.125 410.63 174.243 410.848 174.323C411.067 174.404 411.302 174.446 411.539 174.446H427.024C427.503 174.446 427.963 174.278 428.302 173.977C428.641 173.677 428.831 173.27 428.832 172.846V159.144C428.83 158.72 428.639 158.314 428.3 158.014C427.962 157.714 427.503 157.545 427.024 157.543Z" fill="white"/>
<path d="M427.024 180.903H411.539C411.061 180.904 410.602 181.074 410.265 181.374C409.927 181.674 409.738 182.08 409.738 182.504V196.205C409.737 196.415 409.783 196.623 409.874 196.816C409.964 197.01 410.096 197.187 410.263 197.336C410.431 197.485 410.63 197.602 410.848 197.683C411.067 197.764 411.302 197.805 411.539 197.805H427.024C427.503 197.805 427.963 197.636 428.302 197.336C428.641 197.036 428.831 196.63 428.832 196.205V182.504C428.83 182.08 428.639 181.673 428.3 181.373C427.962 181.073 427.503 180.904 427.024 180.903Z" fill="#6D6D6D"/>
<path d="M427.024 204.262H411.539C411.302 204.262 411.067 204.304 410.848 204.385C410.63 204.465 410.431 204.583 410.263 204.731C410.096 204.881 409.964 205.056 409.874 205.25C409.783 205.445 409.737 205.653 409.738 205.862V219.564C409.737 219.774 409.783 219.981 409.874 220.176C409.964 220.37 410.096 220.547 410.263 220.695C410.431 220.843 410.63 220.962 410.848 221.043C411.067 221.122 411.302 221.164 411.539 221.164H427.024C427.503 221.164 427.963 220.996 428.302 220.696C428.641 220.395 428.831 219.988 428.832 219.564V205.862C428.831 205.438 428.641 205.031 428.302 204.731C427.963 204.43 427.503 204.262 427.024 204.262Z" fill="#E6E6E6"/>
<path d="M459.537 110.825H444.052C443.574 110.827 443.116 110.996 442.778 111.296C442.441 111.596 442.251 112.002 442.251 112.425V126.133C442.251 126.556 442.441 126.962 442.779 127.26C443.116 127.559 443.575 127.728 444.052 127.728H459.537C460.015 127.728 460.474 127.56 460.813 127.262C461.152 126.962 461.343 126.557 461.345 126.133V112.425C461.343 112.001 461.152 111.595 460.814 111.295C460.475 110.995 460.016 110.826 459.537 110.825Z" fill="white"/>
<path d="M459.537 134.185H444.052C443.574 134.186 443.116 134.355 442.778 134.656C442.44 134.955 442.251 135.361 442.251 135.785V149.493C442.251 149.916 442.441 150.32 442.779 150.62C443.116 150.919 443.575 151.086 444.052 151.086H459.537C460.015 151.086 460.474 150.919 460.813 150.62C461.152 150.322 461.343 149.916 461.345 149.493V135.785C461.343 135.361 461.152 134.954 460.814 134.654C460.475 134.355 460.016 134.186 459.537 134.185Z" fill="#6D6D6D"/>
<path d="M459.537 157.543H444.052C443.574 157.545 443.116 157.714 442.778 158.014C442.44 158.314 442.251 158.721 442.251 159.144V172.846C442.251 173.055 442.297 173.263 442.387 173.458C442.477 173.652 442.61 173.827 442.777 173.977C442.944 174.125 443.143 174.243 443.362 174.323C443.58 174.404 443.815 174.446 444.052 174.446H459.537C460.016 174.446 460.476 174.278 460.815 173.977C461.154 173.677 461.345 173.27 461.345 172.846V159.144C461.343 158.72 461.152 158.314 460.814 158.014C460.475 157.714 460.016 157.545 459.537 157.543Z" fill="#E6E6E6"/>
<path d="M459.537 180.903H444.052C443.574 180.904 443.116 181.074 442.778 181.374C442.441 181.674 442.251 182.08 442.251 182.504V196.205C442.251 196.415 442.297 196.623 442.387 196.816C442.477 197.01 442.61 197.187 442.777 197.336C442.944 197.485 443.143 197.602 443.362 197.683C443.58 197.764 443.815 197.805 444.052 197.805H459.537C460.016 197.805 460.476 197.636 460.815 197.336C461.154 197.036 461.345 196.63 461.345 196.205V182.504C461.343 182.08 461.152 181.673 460.814 181.373C460.475 181.073 460.016 180.904 459.537 180.903Z" fill="#E6E6E6"/>
<path d="M459.537 204.262H444.052C443.815 204.262 443.58 204.304 443.362 204.385C443.143 204.465 442.944 204.583 442.777 204.731C442.61 204.881 442.477 205.056 442.387 205.25C442.297 205.445 442.251 205.653 442.251 205.862V219.564C442.251 219.774 442.297 219.981 442.387 220.176C442.477 220.37 442.61 220.547 442.777 220.695C442.944 220.843 443.143 220.962 443.362 221.043C443.58 221.122 443.815 221.164 444.052 221.164H459.537C460.016 221.164 460.476 220.996 460.815 220.696C461.154 220.395 461.345 219.988 461.345 219.564V205.862C461.345 205.438 461.154 205.031 460.815 204.731C460.476 204.43 460.016 204.262 459.537 204.262Z" fill="white"/>
<path d="M492.05 110.825H476.565C476.087 110.827 475.629 110.996 475.291 111.296C474.954 111.596 474.764 112.002 474.765 112.425V126.133C474.765 126.556 474.954 126.962 475.292 127.26C475.63 127.559 476.088 127.728 476.565 127.728H492.05C492.529 127.728 492.987 127.56 493.326 127.262C493.665 126.962 493.856 126.557 493.858 126.133V112.425C493.857 112.001 493.666 111.595 493.327 111.295C492.988 110.995 492.529 110.826 492.05 110.825Z" fill="#E6E6E6"/>
<path d="M492.05 134.185H476.565C476.087 134.186 475.629 134.355 475.291 134.656C474.954 134.955 474.764 135.361 474.765 135.785V149.493C474.765 149.916 474.954 150.32 475.292 150.62C475.63 150.919 476.088 151.086 476.565 151.086H492.05C492.529 151.086 492.987 150.919 493.326 150.62C493.665 150.322 493.856 149.916 493.858 149.493V135.785C493.857 135.361 493.666 134.954 493.327 134.654C492.988 134.355 492.529 134.186 492.05 134.185Z" fill="#E6E6E6"/>
<path d="M492.05 157.543H476.565C476.087 157.545 475.629 157.714 475.291 158.014C474.954 158.314 474.764 158.721 474.765 159.144V172.846C474.764 173.055 474.81 173.263 474.9 173.458C474.99 173.652 475.123 173.827 475.29 173.977C475.457 174.125 475.656 174.243 475.875 174.323C476.094 174.404 476.328 174.446 476.565 174.446H492.05C492.53 174.446 492.989 174.278 493.328 173.977C493.667 173.677 493.858 173.27 493.858 172.846V159.144C493.857 158.72 493.666 158.314 493.327 158.014C492.988 157.714 492.529 157.545 492.05 157.543Z" fill="#E6E6E6"/>
<path d="M492.05 180.903H476.565C476.087 180.904 475.629 181.074 475.291 181.374C474.954 181.674 474.764 182.08 474.765 182.504V196.205C474.764 196.415 474.81 196.623 474.9 196.816C474.99 197.01 475.123 197.187 475.29 197.336C475.457 197.485 475.656 197.602 475.875 197.683C476.094 197.764 476.328 197.805 476.565 197.805H492.05C492.53 197.805 492.989 197.636 493.328 197.336C493.667 197.036 493.858 196.63 493.858 196.205V182.504C493.857 182.08 493.666 181.673 493.327 181.373C492.988 181.073 492.529 180.904 492.05 180.903Z" fill="#6D6D6D"/>
<path d="M492.05 204.262H476.565C476.328 204.262 476.094 204.304 475.875 204.385C475.656 204.465 475.457 204.583 475.29 204.731C475.123 204.881 474.99 205.056 474.9 205.25C474.81 205.445 474.764 205.653 474.765 205.862V219.564C474.764 219.774 474.81 219.981 474.9 220.176C474.99 220.37 475.123 220.547 475.29 220.695C475.457 220.843 475.656 220.962 475.875 221.043C476.094 221.122 476.328 221.164 476.565 221.164H492.05C492.53 221.164 492.989 220.996 493.328 220.696C493.667 220.395 493.858 219.988 493.858 219.564V205.862C493.858 205.438 493.667 205.031 493.328 204.731C492.989 204.43 492.53 204.262 492.05 204.262Z" fill="#E6E6E6"/>
<path d="M524.563 110.825H509.079C508.6 110.827 508.142 110.996 507.805 111.296C507.467 111.596 507.278 112.002 507.278 112.425V126.133C507.278 126.556 507.468 126.962 507.805 127.26C508.143 127.559 508.601 127.728 509.079 127.728H524.563C525.042 127.728 525.501 127.56 525.84 127.262C526.178 126.962 526.37 126.557 526.371 126.133V112.425C526.37 112.001 526.179 111.595 525.84 111.295C525.502 110.995 525.042 110.826 524.563 110.825Z" fill="#E6E6E6"/>
<path d="M524.563 134.185H509.079C508.6 134.186 508.142 134.355 507.805 134.656C507.467 134.955 507.278 135.361 507.278 135.785V149.493C507.278 149.916 507.468 150.32 507.805 150.62C508.143 150.919 508.601 151.086 509.079 151.086H524.563C525.042 151.086 525.501 150.919 525.84 150.62C526.178 150.322 526.37 149.916 526.371 149.493V135.785C526.37 135.361 526.179 134.954 525.84 134.654C525.502 134.355 525.043 134.186 524.563 134.185Z" fill="#E6E6E6"/>
<path d="M524.563 157.543H509.079C508.6 157.545 508.142 157.714 507.805 158.014C507.467 158.314 507.278 158.721 507.278 159.144V172.846C507.277 173.055 507.323 173.263 507.413 173.458C507.504 173.652 507.636 173.827 507.803 173.977C507.971 174.125 508.169 174.243 508.388 174.323C508.607 174.404 508.842 174.446 509.079 174.446H524.563C525.043 174.446 525.503 174.278 525.842 173.977C526.181 173.677 526.371 173.27 526.371 172.846V159.144C526.37 158.72 526.179 158.314 525.84 158.014C525.502 157.714 525.043 157.545 524.563 157.543Z" fill="#6D6D6D"/>
<path d="M524.563 180.903H509.079C508.6 180.904 508.142 181.074 507.805 181.374C507.467 181.674 507.278 182.08 507.278 182.504V196.205C507.277 196.415 507.323 196.623 507.413 196.816C507.504 197.01 507.636 197.187 507.803 197.336C507.971 197.485 508.169 197.602 508.388 197.683C508.607 197.764 508.842 197.805 509.079 197.805H524.563C525.043 197.805 525.503 197.636 525.842 197.336C526.181 197.036 526.371 196.63 526.371 196.205V182.504C526.37 182.08 526.179 181.673 525.84 181.373C525.502 181.073 525.043 180.904 524.563 180.903Z" fill="#E6E6E6"/>
<path d="M524.563 204.262H509.079C508.842 204.262 508.607 204.304 508.388 204.385C508.169 204.465 507.971 204.583 507.803 204.731C507.636 204.881 507.504 205.056 507.413 205.25C507.323 205.445 507.277 205.653 507.278 205.862V219.564C507.277 219.774 507.323 219.981 507.413 220.176C507.504 220.37 507.636 220.547 507.803 220.695C507.971 220.843 508.169 220.962 508.388 221.043C508.607 221.122 508.842 221.164 509.079 221.164H524.563C525.043 221.164 525.503 220.996 525.842 220.696C526.181 220.395 526.371 219.988 526.371 219.564V205.862C526.371 205.438 526.181 205.031 525.842 204.731C525.503 204.43 525.043 204.262 524.563 204.262Z" fill="white"/>
<path d="M557.077 110.825H541.592C541.114 110.827 540.655 110.996 540.318 111.296C539.98 111.596 539.791 112.002 539.791 112.425V126.133C539.791 126.556 539.981 126.962 540.319 127.26C540.656 127.559 541.114 127.728 541.592 127.728H557.077C557.555 127.728 558.014 127.56 558.353 127.262C558.692 126.962 558.883 126.557 558.884 126.133V112.425C558.883 112.001 558.692 111.595 558.353 111.295C558.015 110.995 557.556 110.826 557.077 110.825Z" fill="#E6E6E6"/>
<path d="M557.077 134.185H541.592C541.113 134.186 540.655 134.355 540.318 134.656C539.98 134.955 539.791 135.361 539.791 135.785V149.493C539.791 149.916 539.981 150.32 540.319 150.62C540.656 150.919 541.114 151.086 541.592 151.086H557.077C557.555 151.086 558.014 150.919 558.353 150.62C558.692 150.322 558.883 149.916 558.884 149.493V135.785C558.883 135.361 558.692 134.954 558.353 134.654C558.015 134.355 557.556 134.186 557.077 134.185Z" fill="#E6E6E6"/>
<path d="M557.077 157.543H541.592C541.113 157.545 540.655 157.714 540.318 158.014C539.98 158.314 539.791 158.721 539.791 159.144V172.846C539.79 173.055 539.836 173.263 539.927 173.458C540.017 173.652 540.149 173.827 540.317 173.977C540.484 174.125 540.683 174.243 540.901 174.323C541.12 174.404 541.355 174.446 541.592 174.446H557.077C557.556 174.446 558.016 174.278 558.355 173.977C558.694 173.677 558.884 173.27 558.884 172.846V159.144C558.883 158.72 558.692 158.314 558.353 158.014C558.015 157.714 557.556 157.545 557.077 157.543Z" fill="#E6E6E6"/>
<path d="M557.077 180.903H541.592C541.114 180.904 540.655 181.074 540.318 181.374C539.98 181.674 539.791 182.08 539.791 182.504V196.205C539.79 196.415 539.836 196.623 539.927 196.816C540.017 197.01 540.149 197.187 540.317 197.336C540.484 197.485 540.683 197.602 540.901 197.683C541.12 197.764 541.355 197.805 541.592 197.805H557.077C557.556 197.805 558.016 197.636 558.355 197.336C558.694 197.036 558.884 196.63 558.884 196.205V182.504C558.883 182.08 558.692 181.673 558.353 181.373C558.015 181.073 557.556 180.904 557.077 180.903Z" fill="#6D6D6D"/>
<path d="M557.077 204.262H541.592C541.355 204.262 541.12 204.304 540.901 204.385C540.683 204.465 540.484 204.583 540.317 204.731C540.149 204.881 540.017 205.056 539.927 205.25C539.836 205.445 539.79 205.653 539.791 205.862V219.564C539.79 219.774 539.836 219.981 539.927 220.176C540.017 220.37 540.149 220.547 540.317 220.695C540.484 220.843 540.683 220.962 540.901 221.043C541.12 221.122 541.355 221.164 541.592 221.164H557.077C557.556 221.164 558.016 220.996 558.355 220.696C558.694 220.395 558.884 219.988 558.884 219.564V205.862C558.884 205.438 558.694 205.031 558.355 204.731C558.016 204.43 557.556 204.262 557.077 204.262Z" fill="#E6E6E6"/>
<path d="M589.59 110.825H574.105C573.627 110.827 573.169 110.996 572.831 111.296C572.494 111.596 572.304 112.002 572.304 112.425V126.133C572.304 126.556 572.494 126.962 572.832 127.26C573.17 127.559 573.628 127.728 574.105 127.728H589.59C590.068 127.728 590.527 127.56 590.866 127.262C591.205 126.962 591.396 126.557 591.398 126.133V112.425C591.396 112.001 591.205 111.595 590.867 111.295C590.528 110.995 590.069 110.826 589.59 110.825Z" fill="#E6E6E6"/>
<path d="M589.59 134.185H574.105C573.627 134.186 573.169 134.355 572.831 134.656C572.494 134.955 572.304 135.361 572.304 135.785V149.493C572.304 149.916 572.494 150.32 572.832 150.62C573.17 150.919 573.628 151.086 574.105 151.086H589.59C590.068 151.086 590.527 150.919 590.866 150.62C591.205 150.322 591.396 149.916 591.398 149.493V135.785C591.396 135.361 591.205 134.954 590.867 134.654C590.528 134.355 590.069 134.186 589.59 134.185Z" fill="#E6E6E6"/>
<path d="M589.59 157.543H574.105C573.627 157.545 573.169 157.714 572.831 158.014C572.494 158.314 572.304 158.721 572.304 159.144V172.846C572.304 173.055 572.35 173.263 572.44 173.458C572.53 173.652 572.663 173.827 572.83 173.977C572.997 174.125 573.196 174.243 573.415 174.323C573.634 174.404 573.868 174.446 574.105 174.446H589.59C590.069 174.446 590.529 174.278 590.868 173.977C591.207 173.677 591.398 173.27 591.398 172.846V159.144C591.396 158.72 591.205 158.314 590.867 158.014C590.528 157.714 590.069 157.545 589.59 157.543Z" fill="white"/>
<path d="M589.59 180.903H574.105C573.627 180.904 573.169 181.074 572.831 181.374C572.494 181.674 572.304 182.08 572.304 182.504V196.205C572.304 196.415 572.35 196.623 572.44 196.816C572.53 197.01 572.663 197.187 572.83 197.336C572.997 197.485 573.196 197.602 573.415 197.683C573.634 197.764 573.868 197.805 574.105 197.805H589.59C590.069 197.805 590.529 197.636 590.868 197.336C591.207 197.036 591.398 196.63 591.398 196.205V182.504C591.396 182.08 591.205 181.673 590.867 181.373C590.528 181.073 590.069 180.904 589.59 180.903Z" fill="#E6E6E6"/>
<path d="M589.59 204.262H574.105C573.868 204.262 573.634 204.304 573.415 204.385C573.196 204.465 572.997 204.583 572.83 204.731C572.663 204.881 572.53 205.056 572.44 205.25C572.35 205.445 572.304 205.653 572.304 205.862V219.564C572.304 219.774 572.35 219.981 572.44 220.176C572.53 220.37 572.663 220.547 572.83 220.695C572.997 220.843 573.196 220.962 573.415 221.043C573.634 221.122 573.868 221.164 574.105 221.164H589.59C590.069 221.164 590.529 220.996 590.868 220.696C591.207 220.395 591.398 219.988 591.398 219.564V205.862C591.398 205.438 591.207 205.031 590.868 204.731C590.529 204.43 590.069 204.262 589.59 204.262Z" fill="#E6E6E6"/>
<path d="M233.694 406.279H233.263L233.632 406.236L233.694 406.279Z" fill="#2F2E41"/>
<path d="M196.647 150.838C222.884 150.838 244.153 132.01 244.153 108.784C244.153 85.558 222.884 66.7297 196.647 66.7297C170.41 66.7297 149.141 85.558 149.141 108.784C149.141 132.01 170.41 150.838 196.647 150.838Z" fill="#FFB6B6"/>
<path d="M238.249 77.9506C238.249 77.9506 250.674 56.9237 223.339 55.0121C223.339 55.0121 200.035 36.2987 176.282 51.591C176.282 51.591 163.326 51.591 156.241 64.5698C156.241 64.5698 146.052 61.1488 143.812 70.3044C143.812 70.3044 136.356 89.4198 143.812 106.624C151.269 123.828 153.745 125.739 153.745 125.739C153.745 125.739 141.493 89.6703 171.316 87.7587C201.139 85.8471 234.511 69.3487 236.997 90.3756C239.482 111.402 243.222 116.583 243.222 116.583C243.222 116.583 266.828 86.5526 238.249 77.9506Z" fill="#141414"/>
<path d="M319.534 212.424L319.381 213.138L317.663 221.165L305.794 276.685L305.092 279.953L303.618 286.866L301.602 296.295L297.131 317.193L295.851 323.182L295.371 325.429L295.205 326.217L293.876 332.415L293.473 334.286L290.233 355.54L287.403 374.061L296.873 382.445L291.227 387.443L287.521 406.235L287.528 406.278H136.275C130.156 402.769 124.125 399.152 118.183 395.426L119.427 387.178C119.427 387.178 123.71 372.448 121.909 370.688C120.116 368.928 116.18 365.783 116.18 365.783L121.138 355.54L121.826 354.118L120.672 332.926L120.644 332.415L120.262 325.429L120.213 324.53L120.136 323.182L118.669 296.295L118.641 295.853L118.197 287.703L117.779 279.953L117.598 276.685L115.812 243.982L114.602 221.773L113.545 202.44L117.793 201.166L163.233 187.495L182.055 165.835L221.229 166.094L240.406 166.222L272.405 192.494L279.685 195.57L279.741 195.596L284.963 197.805L298.201 203.4L312.198 209.322L319.381 212.356L319.534 212.424Z" fill="#CACACA"/>
<path d="M187.117 343.187C184.247 344.172 181.167 344.587 178.095 344.404C175.024 344.221 172.035 343.443 169.339 342.128C166.643 340.811 164.306 338.988 162.493 336.786C160.679 334.583 159.433 332.056 158.843 329.381L84.7501 320.076L110.507 294.284L176.918 307.075C182.059 306.494 187.263 307.603 191.542 310.192C195.822 312.781 198.88 316.669 200.137 321.121C201.394 325.571 200.763 330.276 198.364 334.344C195.964 338.411 191.963 341.558 187.117 343.187Z" fill="#FFB6B6"/>
<path d="M154.082 296.295C152.709 294.755 150.767 293.694 148.596 293.298L118.196 287.703L115.074 287.131C113.26 286.795 111.546 286.125 110.045 285.163C108.543 284.201 107.288 282.969 106.362 281.548C105.401 280.056 104.82 278.396 104.658 276.685C104.514 275.129 104.724 273.564 105.277 272.08L115.811 243.982L122.646 225.75C123.475 223.552 123.964 221.264 124.1 218.948C124.481 212.543 122.242 206.229 117.793 201.166C113.882 196.715 108.458 193.496 102.321 191.984C96.1846 190.472 89.6614 190.748 83.7154 192.771C83.5415 192.825 83.3607 192.887 83.1869 192.948C78.9227 194.456 75.1129 196.821 72.0586 199.856C69.0043 202.89 66.7892 206.512 65.5883 210.436L58.1623 234.349L42.8443 283.647C41.3109 288.585 41.0011 293.76 41.9362 298.815C42.8712 303.87 45.029 308.687 48.2618 312.935C51.4946 317.183 55.7261 320.763 60.6668 323.429C65.6074 326.096 71.1405 327.785 76.8873 328.383L120.672 332.926L140.933 335.031C143.276 335.28 145.639 334.738 147.552 333.515C149.464 332.291 150.785 330.473 151.252 328.426C151.285 328.314 151.31 328.201 151.328 328.087L151.815 325.429L155.938 303.036L155.98 302.808C156.195 301.666 156.137 300.495 155.81 299.374C155.483 298.253 154.895 297.204 154.082 296.295Z" fill="#CACACA"/>
<path d="M234.311 343.905C237.31 344.522 240.425 344.548 243.437 343.984C246.449 343.418 249.284 342.276 251.743 340.637C254.202 338.997 256.225 336.9 257.67 334.493C259.114 332.087 259.945 329.429 260.104 326.707L331.974 308.246L302.366 285.927L238.656 306.88C233.474 306.947 228.499 308.695 224.674 311.791C220.85 314.889 218.442 319.12 217.906 323.684C217.371 328.248 218.745 332.828 221.768 336.554C224.792 340.281 229.255 342.896 234.311 343.905Z" fill="#FFB6B6"/>
<path d="M367.657 266.947L333.475 197.307C330.679 191.59 325.686 186.934 319.381 184.165C317.432 183.315 315.385 182.655 313.276 182.196C312.949 182.122 312.622 182.053 312.296 181.999C307.823 181.135 303.184 181.21 298.751 182.22C294.698 183.142 290.911 184.809 287.635 187.114C284.36 189.419 281.67 192.309 279.741 195.596C279.72 195.623 279.701 195.651 279.685 195.682C277.53 199.371 276.385 203.458 276.34 207.611C276.295 211.764 277.353 215.869 279.428 219.595L279.852 220.346L304.007 263.291C304.832 264.759 305.297 266.366 305.371 268.005C305.445 269.643 305.127 271.278 304.438 272.8C303.748 274.322 302.703 275.698 301.371 276.838C300.038 277.976 298.449 278.854 296.706 279.412L295.01 279.953L264.499 289.709C262.21 290.432 260.327 291.914 259.246 293.842C258.166 295.77 257.973 297.993 258.707 300.045L258.784 300.26L267.336 324.486C267.378 324.598 267.419 324.708 267.468 324.819C267.543 325.028 267.636 325.232 267.746 325.428C268.655 327.232 270.262 328.692 272.277 329.541C274.292 330.39 276.584 330.576 278.739 330.063L295.204 326.217L298.563 325.428L341.082 315.488C346.676 314.179 351.886 311.815 356.353 308.559C360.82 305.302 364.439 301.23 366.963 296.62C369.486 292.011 370.855 286.972 370.975 281.851C371.095 276.729 369.963 271.646 367.657 266.947Z" fill="#CACACA"/>
<path d="M31.2186 325.429C41.0716 336.067 51.6978 346.126 63.0296 355.54H377.294C380.322 355.544 383.224 356.611 385.365 358.507C387.505 360.403 388.709 362.973 388.711 365.653L389.163 436.149C408.497 428.287 426.602 418.245 443.03 406.278C447.591 402.96 452.011 399.499 456.29 395.893C459.092 393.543 461.827 391.134 464.495 388.667C484.495 370.223 500.69 348.821 512.347 325.429H31.2186Z" fill="#6D6D6D"/>
<path d="M464.495 388.668C461.831 391.136 459.097 393.545 456.29 395.894H389.393V388.668H464.495Z" fill="white"/>
<path d="M318.908 157.543C318.578 157.004 318.089 156.553 317.492 156.238C316.896 155.925 316.216 155.758 315.522 155.758H87.5675C86.5455 155.762 85.5662 156.122 84.8441 156.763C84.1221 157.402 83.7162 158.27 83.7154 159.175V279.953H319.381V159.175C319.384 158.604 319.222 158.043 318.908 157.543Z" fill="#6D6D6D"/>
<path d="M83.509 276.684V291.588C83.509 292.206 83.6464 292.817 83.9135 293.388C84.1806 293.959 84.5721 294.478 85.0657 294.915C85.5592 295.351 86.1451 295.698 86.79 295.935C87.4348 296.171 88.1259 296.293 88.8239 296.293H175.806V325.707H174.651C174.56 325.707 174.47 325.722 174.387 325.753C174.303 325.783 174.227 325.829 174.163 325.886C174.099 325.942 174.048 326.009 174.013 326.084C173.978 326.159 173.96 326.237 173.96 326.318V328.363C173.96 328.444 173.978 328.523 174.013 328.598C174.048 328.672 174.099 328.74 174.163 328.795C174.227 328.852 174.303 328.898 174.387 328.929C174.47 328.96 174.56 328.974 174.651 328.974H228.648C228.739 328.974 228.829 328.96 228.913 328.929C228.996 328.898 229.073 328.852 229.137 328.795C229.201 328.74 229.252 328.672 229.286 328.598C229.321 328.523 229.339 328.444 229.339 328.363V326.318C229.339 326.237 229.321 326.159 229.286 326.084C229.252 326.009 229.201 325.942 229.137 325.886C229.073 325.829 228.996 325.783 228.913 325.753C228.829 325.722 228.739 325.707 228.648 325.707H227.493V296.293H314.475C315.173 296.293 315.865 296.171 316.509 295.935C317.154 295.698 317.74 295.351 318.234 294.915C318.727 294.478 319.119 293.959 319.386 293.388C319.653 292.817 319.79 292.206 319.79 291.588V276.684H83.509Z" fill="#5B5B5B"/>
<path d="M198.795 233.906C210.817 233.906 220.563 225.279 220.563 214.636C220.563 203.994 210.817 195.366 198.795 195.366C186.772 195.366 177.027 203.994 177.027 214.636C177.027 225.279 186.772 233.906 198.795 233.906Z" fill="#CCF235"/>
<path d="M254.257 106.486H250.78C250.78 83.2189 224.768 67.9723 198.527 67.96C194.71 67.9501 190.902 68.2779 187.158 68.9387C182.945 69.6834 178.571 70.576 174.274 71.7393C157.329 76.3373 141.615 85.2254 141.615 106.486C141.611 110.615 142.205 114.727 143.381 118.722L140.016 119.498C138.767 115.248 138.136 110.876 138.138 106.486C138.138 87.9092 146.753 75.1493 161.633 67.5414C169.456 63.5404 179.002 60.9614 189.94 59.7057C194.491 59.1697 199.093 59.046 203.672 59.3365C233.849 61.2569 254.257 81.7416 254.257 106.486Z" fill="#70DA1C"/>
<path d="M260.049 108.191L258.679 99.2287C258.341 96.9655 257.11 94.881 255.203 93.3442C253.978 92.3425 252.513 91.6003 250.917 91.1737C249.32 90.7472 247.636 90.6475 245.99 90.8822L243.813 91.1469C243.218 91.2162 242.644 91.3896 242.125 91.6569C241.605 91.9243 241.151 92.2803 240.789 92.7041C240.423 93.1266 240.155 93.6091 240.001 94.1235C239.848 94.638 239.81 95.1744 239.892 95.7018L243.055 116.346C243.186 117.187 243.612 117.972 244.273 118.587C244.934 119.202 245.798 119.618 246.741 119.775C247.02 119.824 247.304 119.849 247.589 119.849C247.794 119.849 247.998 119.837 248.201 119.812L250.634 119.522C252.118 119.349 253.546 118.908 254.83 118.227C256.114 117.547 257.228 116.64 258.102 115.565C258.29 115.33 258.471 115.091 258.638 114.845C259.941 112.831 260.438 110.486 260.049 108.191Z" fill="#70DA1C"/>
<path d="M242.409 91.5222C241.77 91.7968 241.215 92.2019 240.789 92.7041C240.423 93.1265 240.155 93.6089 240.001 94.1235C239.848 94.6379 239.81 95.1743 239.892 95.7017L243.055 116.346C243.186 117.187 243.612 117.972 244.273 118.587C244.934 119.202 245.798 119.618 246.741 119.775L242.409 91.5222Z" fill="white"/>
<path d="M260.049 108.191L258.679 99.2288C258.341 96.9655 257.11 94.8811 255.203 93.3444L258.352 113.884C258.4 114.214 258.495 114.537 258.638 114.845C259.941 112.831 260.438 110.486 260.049 108.191Z" fill="#3F3D56"/>
<path d="M249.223 114.649C250.174 114.533 250.653 112.53 250.291 110.172C249.93 107.814 248.866 105.995 247.915 106.109C246.963 106.223 246.485 108.227 246.846 110.585C247.208 112.943 248.272 114.763 249.223 114.649Z" fill="#3F3D56"/>
<path d="M247.137 103.569C248.088 103.454 248.567 101.45 248.205 99.0922C247.844 96.7342 246.78 94.9153 245.829 95.0295C244.877 95.1437 244.399 97.148 244.76 99.5059C245.122 101.864 246.186 103.683 247.137 103.569Z" fill="#3F3D56"/>
<path d="M260.348 107.877C261.3 107.763 261.778 105.759 261.416 103.401C261.055 101.043 259.991 99.2239 259.04 99.3381C258.088 99.4524 257.61 101.457 257.971 103.815C258.333 106.173 259.397 107.992 260.348 107.877Z" fill="#3F3D56"/>
<path d="M198.527 67.96C194.71 67.9501 190.902 68.2779 187.158 68.9387C182.945 69.6834 178.571 70.5759 174.274 71.7393C167.564 71.45 162.627 69.9112 161.633 67.5414C169.456 63.5404 179.002 60.9614 189.94 59.7057C194.491 59.1697 199.093 59.046 203.672 59.3365C204.157 59.5881 204.576 59.9277 204.902 60.3328C205.228 60.7381 205.454 61.1999 205.564 61.6877C205.89 63.8298 203.13 66.1073 198.527 67.96Z" fill="#3F3D56"/>
<path d="M154.138 127.844L148.784 108.142C148.593 107.431 148.169 106.786 147.565 106.287C146.961 105.789 146.205 105.46 145.39 105.341C145.16 105.309 144.928 105.293 144.695 105.292C144.367 105.293 144.04 105.328 143.722 105.396L141.65 105.839C138.982 106.411 136.679 107.895 135.246 109.968C133.814 112.04 133.368 114.531 134.008 116.894L136.407 125.733C136.955 127.814 138.259 129.678 140.12 131.04C140.421 131.255 140.737 131.453 141.066 131.636C142.231 132.283 143.531 132.716 144.889 132.91C146.247 133.105 147.635 133.057 148.971 132.769L151.036 132.325C151.583 132.213 152.096 132.001 152.545 131.704C153.213 131.273 153.721 130.676 154.005 129.988C154.288 129.301 154.334 128.555 154.138 127.844Z" fill="#70DA1C"/>
<path d="M142.913 124.179C143.847 123.98 144.094 121.942 143.465 119.629C142.836 117.316 141.569 115.602 140.636 115.8C139.703 116 139.456 118.036 140.085 120.35C140.714 122.663 141.98 124.377 142.913 124.179Z" fill="#3F3D56"/>
<path d="M135.96 126.025C136.894 125.826 137.141 123.789 136.512 121.476C135.883 119.162 134.616 117.448 133.683 117.647C132.749 117.845 132.503 119.882 133.131 122.197C133.76 124.51 135.027 126.224 135.96 126.025Z" fill="#3F3D56"/>
<path d="M154.478 127.77L149.124 108.068C148.916 107.299 148.455 106.601 147.801 106.062C147.147 105.524 146.328 105.168 145.446 105.039L152.754 131.95C153.476 131.482 154.025 130.836 154.331 130.091C154.638 129.348 154.689 128.54 154.478 127.77Z" fill="white"/>
<path d="M135.218 112.992C135.07 112.444 134.793 111.93 134.404 111.484C133.652 113.209 133.513 115.098 134.008 116.894L136.407 125.733C136.955 127.814 138.259 129.678 140.12 131.04L135.218 112.992Z" fill="#3F3D56"/>
</g>
</g>
<defs>
<clipPath id="clip0_5_2">
<rect width="600" height="456" fill="white"/>
</clipPath>
</defs>
</svg>
